<svg width="32" height="32" viewBox="0 0 32 32" fill="none" xmlns="http://www.w3.org/2000/svg">
<path d="M15.9999 7.99992C17.4666 7.99992 18.6666 9.19992 18.6666 10.6666C18.6666 12.1333 17.4666 13.3333 15.9999 13.3333C14.5333 13.3333 13.3333 12.1333 13.3333 10.6666C13.3333 9.19992 14.5333 7.99992 15.9999 7.99992ZM15.9999 19.9999C19.5999 19.9999 23.7333 21.7199 23.9999 22.6666V23.9999H7.99992V22.6799C8.26659 21.7199 12.3999 19.9999 15.9999 19.9999ZM15.9999 5.33325C13.0533 5.33325 10.6666 7.71992 10.6666 10.6666C10.6666 13.6133 13.0533 15.9999 15.9999 15.9999C18.9466 15.9999 21.3333 13.6133 21.3333 10.6666C21.3333 7.71992 18.9466 5.33325 15.9999 5.33325ZM15.9999 17.3333C12.4399 17.3333 5.33325 19.1199 5.33325 22.6666V26.6666H26.6666V22.6666C26.6666 19.1199 19.5599 17.3333 15.9999 17.3333Z" fill="#282828"/>
</svg>
